<svg id="SvgjsSvg1014" width="288" height="288" xmlns="http://www.w3.org/2000/svg" version="1.1" xmlns:xlink="http://www.w3.org/1999/xlink" xmlns:svgjs="http://svgjs.com/svgjs"><defs id="SvgjsDefs1015"></defs><g id="SvgjsG1016"><svg xmlns="http://www.w3.org/2000/svg" width="288" height="288" version="1.0" viewBox="0 0 1017 1282"><g transform="matrix(.1 0 0 -.1 0 1282)" fill="#ffffff" class="color000 svgShape"><path d="M2100 12479 c-99 -16 -195 -72 -290 -168 -131 -133 -219 -306 -284-563 -53 -208 -70 -357 -70 -628 -1 -230 8 -329 40 -491 l15 -77 -44 -68
c-107 -166 -190 -370 -229 -567 -30 -151 -32 -423 -4 -572 43 -231 153 -486
287 -664 38 -51 71 -96 74 -101 3 -5 -15 -44 -39 -87 -96 -165 -131 -311 -123
-508 6 -160 29 -254 96 -387 l48 -98 -48 -97 c-64 -128 -89 -229 -96 -375 -6
-134 6 -234 44 -349 l24 -75 -76 -75 c-136 -131 -234 -306 -269 -481 -30 -148
-18 -352 30 -494 21 -63 76 -174 114 -229 l30 -44 -50 -78 c-60 -94 -102 -199
-125 -312 -24 -115 -16 -335 14 -436 63 -211 204 -407 372 -519 l56 -37 6
-147 c23 -527 209 -1071 464 -1353 l32 -35 4 -635 c3 -698 1 -671 68 -809 47
-95 170 -216 269 -262 113 -54 164 -63 345 -63 126 0 173 4 220 19 164 50 308
166 378 306 68 138 67 125 67 813 l0 619 41 49 41 50 37 -43 36 -42 5 -640 c5
-626 6 -643 27 -706 75 -220 256 -378 481 -417 108 -19 320 -12 402 12 190 58
340 199 408 385 l27 75 3 640 3 640 56 70 c113 140 202 301 278 498 22 60 45
108 49 108 5 0 25 -44 46 -98 74 -197 174 -376 286 -515 l54 -67 0 -618 c0
-594 1 -621 21 -693 56 -204 213 -362 424 -426 47 -15 94 -19 220 -19 181 0
232 9 345 63 99 46 222 167 269 262 67 138 65 111 69 810 l3 635 47 53 47 54
45 -53 45 -53 5 -646 c5 -632 6 -646 27 -703 39 -102 86 -179 149 -241 72 -72
145 -118 246 -154 68 -24 85 -26 248 -26 142 -1 186 3 235 17 159 49 297 160
368 295 75 142 71 96 74 808 l4 640 41 50 c454 544 596 1582 329 2394 -27 82
-67 187 -89 233 l-40 85 26 7 c15 4 60 22 100 40 252 117 442 333 497 568 19
80 19 244 0 325 -117 494 -723 790 -1305 636 -95 -25 -265 -100 -329 -146
l-34 -25 -77 44 c-139 79 -320 144 -500 180 -76 15 -203 17 -1223 20 l-1138 4
8 62 c12 90 8 263 -6 332 -20 91 -49 172 -94 258 l-41 77 41 78 c79 149 107
266 107 442 1 177 -34 315 -115 459 -35 62 -105 155 -138 185 -11 11 -21 22
-21 26 0 4 27 52 60 106 315 516 305 1174 -25 1684 l-44 69 19 104 c102 567 3
1226 -235 1562 -211 297 -549 359 -809 148 -192 -155 -341 -499 -386 -893 -6
-52 -13 -109 -16 -126 l-4 -31 -120 0 c-66 0 -120 1 -120 1 0 41 -37 292 -56
374 -126 564 -411 851 -784 791z m151 -686 c58 -126 103 -323 115 -504 l7 -95
-49 -18 c-27 -11 -103 -46 -169 -80 -66 -33 -124 -63 -129 -65 -14 -6 0 297
19 409 24 147 62 277 107 369 46 97 47 97 99 -16z m1738 -28 c35 -84 66 -198
87 -320 15 -94 32 -415 21 -415 -4 0 -43 20 -87 44 -44 25 -120 62 -170 83
l-90 38 0 45 c1 182 74 484 147 609 l25 43 19 -28 c10 -16 32 -60 48 -99z
m-808 -1025 c250 -24 455 -95 651 -226 242 -161 407 -388 480 -658 30 -111 32
-345 4 -456 -53 -210 -141 -362 -316 -545 -84 -88 -104 -136 -98 -237 7 -128
56 -193 192 -258 129 -62 200 -149 227 -278 26 -123 -21 -245 -129 -341 -165
-148 -165 -334 0 -482 108 -96 155 -218 129 -341 -18 -86 -41 -128 -121 -213
-83 -90 -105 -144 -98 -244 3 -39 14 -82 26 -106 24 -47 82 -105 132 -131 34
-18 95 -19 1445 -24 l1410 -5 99 -27 c374 -103 646 -381 741 -757 37 -146 48
-164 150 -243 77 -58 124 -110 186 -206 279 -427 346 -1176 157 -1752 -69
-210 -154 -359 -287 -503 -63 -67 -83 -97 -95 -138 -14 -45 -16 -145 -16 -720
0 -768 12 -689 -109 -689 -50 0 -74 4 -85 16 -14 14 -16 89 -16 678 0 573 -2
670 -16 715 -12 42 -32 71 -96 139 -155 164 -233 314 -318 610 -23 78 -50 150
-66 173 -35 51 -103 95 -167 109 -37 8 -357 10 -1092 8 -1035 -3 -1040 -3
-1085 -24 -92 -43 -142 -117 -175 -254 -39 -163 -119 -352 -201 -476 -21 -32
-75 -97 -121 -146 -65 -70 -86 -99 -98 -140 -13 -44 -15 -148 -15 -719 0 -650
-1 -669 -19 -679 -25 -13 -151 -13 -171 0 -13 8 -16 101 -20 702 l-5 693 -22
42 c-13 23 -47 66 -76 95 -114 115 -188 231 -261 414 -24 62 -51 125 -60 142
-20 38 -69 79 -126 106 -42 20 -67 21 -420 27 -373 5 -375 5 -448 31 -107 38
-177 83 -262 168 -124 123 -179 250 -199 456 -11 118 -29 161 -93 221 -46 41
-106 66 -188 77 -108 15 -223 100 -276 203 -26 53 -29 67 -29 158 0 90 3 105
28 155 36 71 76 112 158 165 109 71 151 142 151 256 0 113 -47 190 -158 260
-73 47 -113 89 -152 162 -24 47 -27 62 -27 152 0 89 3 106 28 157 34 69 129
160 189 181 24 8 65 23 91 32 118 42 190 140 190 262 1 87 -25 146 -97 224
-30 32 -67 84 -83 116 -25 51 -28 69 -28 153 0 84 3 102 29 154 18 37 53 82
98 125 95 90 122 144 122 241 0 99 -23 145 -119 238 -105 103 -130 158 -130
282 0 143 32 200 193 338 47 41 65 64 81 107 46 122 17 230 -87 328 -144 135
-210 213 -273 322 -214 371 -176 806 100 1155 257 324 724 513 1162 470z
m5476 -4596 c111 -29 223 -106 257 -178 61 -129 -63 -271 -280 -322 -36 -8
-85 -14 -107 -12 l-40 3 -24 70 c-29 88 -119 271 -172 350 -21 33 -38 63 -35
66 4 7 117 35 169 43 46 6 173 -5 232 -20z m-1848 -3166 c-51 -102 -113 -188
-186 -260 -37 -37 -78 -75 -90 -83 l-23 -16 0 -711 c0 -648 -1 -713 -17 -730
-13 -14 -31 -18 -85 -18 -121 0 -108 -85 -108 734 l0 713 -81 73 c-87 79 -161
176 -215 282 -19 37 -34 70 -34 73 0 3 196 5 435 5 l435 0 -31 -62z m-4243
-91 c113 -40 217 -59 379 -66 l150 -6 -107 -106 -108 -106 0 -711 c0 -817 12
-732 -106 -732 -115 0 -104 -76 -104 744 l0 712 -64 54 c-36 30 -85 80 -110
111 -46 56 -116 166 -116 180 0 5 26 -5 58 -20 31 -16 89 -40 128 -54z" fill="#ffffff" class="color000 svgShape"></path><path d="M2370 10237c-54-17-133-102-149-160-31-110 11-225 103-281 39-24 63-31 116-34 84-5 131 10 183 57 54 48 80 109 80 187 0 172-162 285-333 231zM3560 10229c-97-44-143-116-144-224-1-80 20-128 76-182 45-44 96-63 168-63 100 0 175 46 223 135 30 55 29 163 0 220-44 83-129 135-223 135-34 0-72-8-100-21zM2875 9568c-50-18-92-55-115-103-45-93-8-220 77-265 31-16 31-17 17-46-35-68-106-113-177-114-113 0-197-89-197-207 0-110 75-190 186-200 110-9 282 44 373 116l37 29 64-43c134-91 341-128 435-79 94 49 133 177 83 274-32 63-89 100-170 110-73 9-112 26-149 67-26 27-54 73-47 76 83 42 121 95 126 180 4 78-24 138-87 182l-43 30-191 2c-119 1-203-2-222-9z" fill="#ffffff" class="color000 svgShape"></path></g></svg></g></svg>